<svg width="50" height="50" viewBox="0 0 50 50" fill="none" xmlns="http://www.w3.org/2000/svg">
<rect width="50" height="50" rx="6" fill="white"/>
<path d="M22.6857 9.42847C22.509 9.42609 22.3337 9.45856 22.1698 9.52399C22.006 9.58942 21.8568 9.6865 21.7311 9.80961C21.6053 9.93272 21.5055 10.0794 21.4373 10.2411C21.3692 10.4028 21.3341 10.5764 21.3341 10.7517H13.3523C13.1756 10.7492 13.0002 10.7816 12.8363 10.847C12.6723 10.9124 12.5231 11.0094 12.3973 11.1325C12.2714 11.2557 12.1715 11.4024 12.1033 11.5641C12.0351 11.7259 12 11.8995 12 12.0749C12 12.2502 12.0351 12.4238 12.1033 12.5856C12.1715 12.7474 12.2714 12.8941 12.3973 13.0172C12.5231 13.1403 12.6723 13.2374 12.8363 13.3028C13.0002 13.3682 13.1756 13.4006 13.3523 13.3981H37.3523C37.529 13.4006 37.7044 13.3682 37.8684 13.3028C38.0323 13.2374 38.1816 13.1403 38.3074 13.0172C38.4332 12.8941 38.5331 12.7474 38.6013 12.5856C38.6695 12.4238 38.7046 12.2502 38.7046 12.0749C38.7046 11.8995 38.6695 11.7259 38.6013 11.5641C38.5331 11.4024 38.4332 11.2557 38.3074 11.1325C38.1816 11.0094 38.0323 10.9124 37.8684 10.847C37.7044 10.7816 37.529 10.7492 37.3523 10.7517H29.3706C29.3705 10.5764 29.3355 10.4028 29.2673 10.2411C29.1992 10.0794 29.0993 9.93272 28.9736 9.80961C28.8478 9.6865 28.6987 9.58942 28.5348 9.52399C28.3709 9.45856 28.1956 9.42609 28.019 9.42847H22.6857ZM13.3523 16.0445V37.2157C13.3523 38.6779 14.5457 39.8622 16.019 39.8622H34.6857C36.159 39.8622 37.3523 38.6779 37.3523 37.2157V16.0445H13.3523Z" fill="#29aae3"/>
</svg>
