<svg width="132" height="70" viewBox="0 0 132 70" fill="none" xmlns="http://www.w3.org/2000/svg">
<path d="M0 68.68L0.44 68.58C0.906667 68.4333 1.21333 68.26 1.36 68.06C1.50667 67.8467 1.58 67.46 1.58 66.9V58.7C1.58 58.14 1.5 57.7533 1.34 57.54C1.19333 57.3133 0.893333 57.14 0.44 57.02L0 56.92L0.22 56.3H4.2L4.44 56.58L4.2 56.92C3.90667 57.3333 3.69333 57.7667 3.56 58.22C3.44 58.66 3.38 59.2267 3.38 59.92V66.9C3.38 67.2867 3.40667 67.58 3.46 67.78C3.52667 67.9667 3.64 68.0933 3.8 68.16C3.96 68.2267 4.20667 68.26 4.54 68.26H7.18C7.66 68.26 7.98 68.1733 8.14 68C8.31333 67.8267 8.4 67.46 8.4 66.9V58.7C8.4 58.14 8.32 57.7533 8.16 57.54C8.01333 57.3133 7.70667 57.14 7.24 57.02L6.82 56.92L7.06 56.3H10.96L11.18 56.58L10.96 56.92C10.6533 57.32 10.4333 57.7467 10.3 58.2C10.18 58.64 10.12 59.2133 10.12 59.92V67.02C10.12 67.5267 10.18 67.86 10.3 68.02C10.42 68.18 10.6667 68.26 11.04 68.26H14C14.32 68.26 14.56 68.2267 14.72 68.16C14.88 68.0933 14.9867 67.9667 15.04 67.78C15.1067 67.58 15.14 67.2867 15.14 66.9V58.7C15.14 58.14 15.06 57.7533 14.9 57.54C14.7533 57.3133 14.4533 57.14 14 57.02L13.58 56.92L13.78 56.3H17.76L18 56.58L17.76 56.92C17.4667 57.3333 17.26 57.76 17.14 58.2C17.02 58.64 16.96 59.2133 16.96 59.92V67.02C16.96 67.54 17.0333 67.9067 17.18 68.12C17.3267 68.3333 17.6133 68.5 18.04 68.62L18.42 68.72L18.22 69.3H0.22L0 68.68ZM19.9414 68.72L20.3214 68.62C20.7481 68.5267 21.0281 68.3733 21.1614 68.16C21.3081 67.9467 21.3814 67.58 21.3814 67.06V61.82C21.3814 61.66 21.3547 61.5533 21.3014 61.5C21.2481 61.4467 21.1614 61.42 21.0414 61.42H20.0614L19.8614 60.8C20.3547 60.6133 21.0147 60.4467 21.8414 60.3C22.6681 60.1533 23.4681 60.08 24.2414 60.08C25.7081 60.08 26.7947 60.2933 27.5014 60.72C28.2214 61.1467 28.5814 61.7533 28.5814 62.54C28.5814 62.98 28.4681 63.38 28.2414 63.74C28.0147 64.1 27.7014 64.4 27.3014 64.64C27.9014 64.8 28.3614 65.06 28.6814 65.42C29.0147 65.78 29.1814 66.2267 29.1814 66.76C29.1814 68.4533 27.8081 69.3 25.0614 69.3H20.1414L19.9414 68.72ZM25.1014 68.4C25.7014 68.4 26.2147 68.26 26.6414 67.98C27.0814 67.6867 27.3014 67.2533 27.3014 66.68C27.3014 66.2 27.1081 65.8333 26.7214 65.58C26.3481 65.3133 25.8281 65.1667 25.1614 65.14H25.0214C24.6481 65.14 24.3281 65.0867 24.0614 64.98C23.8081 64.8733 23.6814 64.74 23.6814 64.58C23.6814 64.3533 23.7481 64.24 23.8814 64.24C23.9214 64.24 24.0147 64.2667 24.1614 64.32C24.3081 64.36 24.4947 64.38 24.7214 64.38C25.3747 64.38 25.8814 64.2333 26.2414 63.94C26.6147 63.6467 26.8014 63.2333 26.8014 62.7C26.8014 62.1667 26.6014 61.7533 26.2014 61.46C25.8147 61.1667 25.2214 61.02 24.4214 61.02C23.8614 61.02 23.4881 61.0933 23.3014 61.24C23.1147 61.3867 23.0214 61.5667 23.0214 61.78V66.26C23.0214 67.1533 23.2281 67.7333 23.6414 68C24.0547 68.2667 24.5414 68.4 25.1014 68.4ZM35.3537 69.56C34.5138 69.56 33.7804 69.3667 33.1538 68.98C32.5271 68.5933 32.0404 68.0533 31.6938 67.36C31.3471 66.6533 31.1737 65.84 31.1737 64.92C31.1737 63.96 31.3671 63.1133 31.7537 62.38C32.1404 61.6467 32.6871 61.08 33.3937 60.68C34.1138 60.28 34.9404 60.08 35.8737 60.08C36.8604 60.08 37.6204 60.34 38.1538 60.86C38.7004 61.38 38.9738 62.0067 38.9738 62.74C38.9738 63.2467 38.8338 63.7333 38.5537 64.2C38.2871 64.6667 37.8871 65.0467 37.3537 65.34C36.8338 65.6333 36.2204 65.78 35.5137 65.78C35.1138 65.78 34.6804 65.7133 34.2137 65.58C33.7471 65.4333 33.5137 65.22 33.5137 64.94C33.5137 64.8333 33.5404 64.74 33.5938 64.66C33.6471 64.58 33.7071 64.54 33.7738 64.54C33.8138 64.54 33.9338 64.58 34.1338 64.66C34.3471 64.7267 34.6204 64.76 34.9538 64.76C35.6871 64.76 36.2537 64.56 36.6538 64.16C37.0537 63.76 37.2537 63.28 37.2537 62.72C37.2537 62.24 37.0938 61.8267 36.7738 61.48C36.4671 61.1333 36.0537 60.96 35.5337 60.96C34.7471 60.96 34.1338 61.3067 33.6937 62C33.2671 62.68 33.0537 63.6533 33.0537 64.92C33.0537 66 33.2804 66.8467 33.7337 67.46C34.2004 68.06 34.8671 68.36 35.7337 68.36C36.8004 68.36 37.6804 68.0133 38.3737 67.32C38.4137 67.28 38.4671 67.26 38.5337 67.26C38.6404 67.26 38.7471 67.3133 38.8538 67.42C38.9738 67.5267 39.0337 67.64 39.0337 67.76C39.0337 67.8 39.0204 67.84 38.9938 67.88C38.9671 67.9067 38.9538 67.9267 38.9538 67.94C38.5004 68.4733 37.9604 68.88 37.3338 69.16C36.7204 69.4267 36.0604 69.56 35.3537 69.56ZM40.8241 68.74L41.2041 68.62C41.6174 68.5 41.8907 68.3467 42.0241 68.16C42.1707 67.96 42.2441 67.6067 42.2441 67.1V62.5C42.2441 61.9933 42.1707 61.64 42.0241 61.44C41.8907 61.24 41.6174 61.08 41.2041 60.96L40.8241 60.84L41.0241 60.3H44.6441L44.8641 60.54L44.6441 60.84C44.3641 61.2267 44.1641 61.6267 44.0441 62.04C43.9374 62.44 43.8841 62.98 43.8841 63.66V66.2L48.2641 62.08C48.1974 61.72 48.0907 61.4667 47.9441 61.32C47.8107 61.1733 47.5974 61.0533 47.3041 60.96L46.9441 60.84L47.1041 60.3H50.7641L50.9641 60.54L50.7641 60.84C50.4841 61.2267 50.2841 61.6267 50.1641 62.04C50.0574 62.44 50.0041 62.98 50.0041 63.66V67.22C50.0041 67.7 50.0707 68.0267 50.2041 68.2C50.3374 68.3733 50.6107 68.5267 51.0241 68.66L51.3641 68.76L51.2041 69.3H47.1041L46.9441 68.74L47.3041 68.62C47.7307 68.5 48.0107 68.3467 48.1441 68.16C48.2907 67.96 48.3641 67.6067 48.3641 67.1V63.44L43.9841 67.56C44.0374 67.9333 44.1307 68.1933 44.2641 68.34C44.4107 68.4733 44.6307 68.58 44.9241 68.66L45.2841 68.76L45.1041 69.3H41.0241L40.8241 68.74ZM46.0641 58.96C45.1974 58.96 44.5107 58.82 44.0041 58.54C43.5107 58.2467 43.2641 57.8267 43.2641 57.28C43.2641 56.8933 43.3907 56.5867 43.6441 56.36C43.8974 56.12 44.2041 56 44.5641 56C44.6574 56 44.7374 56.0267 44.8041 56.08C44.8707 56.1333 44.9041 56.1933 44.9041 56.26C44.9041 56.3 44.8574 56.4 44.7641 56.56C44.6707 56.72 44.6241 56.94 44.6241 57.22C44.6241 57.8733 45.1041 58.2 46.0641 58.2C46.5841 58.2 46.9641 58.1133 47.2041 57.94C47.4441 57.7667 47.5641 57.5333 47.5641 57.24C47.5641 56.96 47.5174 56.74 47.4241 56.58C47.3441 56.4067 47.3041 56.3 47.3041 56.26C47.3041 56.18 47.3307 56.12 47.3841 56.08C47.4507 56.0267 47.5441 56 47.6641 56C47.9974 56 48.2841 56.12 48.5241 56.36C48.7774 56.5867 48.9041 56.8933 48.9041 57.28C48.9041 57.8267 48.6507 58.2467 48.1441 58.54C47.6374 58.82 46.9441 58.96 46.0641 58.96ZM53.1287 68.74L53.5088 68.62C53.9221 68.5 54.1954 68.3467 54.3288 68.16C54.4754 67.96 54.5488 67.6067 54.5488 67.1V62.5C54.5488 61.9933 54.4754 61.64 54.3288 61.44C54.1954 61.24 53.9221 61.08 53.5088 60.96L53.1287 60.84L53.3288 60.3H56.9287L57.1488 60.54L56.9287 60.84C56.6621 61.2 56.4688 61.5933 56.3488 62.02C56.2421 62.4333 56.1888 62.98 56.1888 63.66V64.24H60.5488V62.5C60.5488 61.9933 60.4754 61.64 60.3288 61.44C60.1954 61.24 59.9154 61.08 59.4888 60.96L59.0887 60.84L59.3088 60.3H62.9088L63.1488 60.54L62.9088 60.84C62.6421 61.2 62.4554 61.5867 62.3488 62C62.2421 62.4133 62.1888 62.9667 62.1888 63.66V67.22C62.1888 67.7 62.2554 68.0333 62.3888 68.22C62.5221 68.3933 62.7887 68.54 63.1888 68.66L63.5088 68.76L63.3488 69.3H59.3088L59.0887 68.74L59.4888 68.62C59.9154 68.5 60.1954 68.3467 60.3288 68.16C60.4754 67.96 60.5488 67.6067 60.5488 67.1V65.3H56.1888V67.22C56.1888 67.7 56.2554 68.0333 56.3888 68.22C56.5354 68.3933 56.8088 68.54 57.2088 68.66L57.5687 68.76L57.3887 69.3H53.3288L53.1287 68.74ZM65.2772 68.74L65.6572 68.62C66.0705 68.5 66.3439 68.34 66.4772 68.14C66.6239 67.94 66.6972 67.5933 66.6972 67.1V62.5C66.6972 62.0067 66.6239 61.66 66.4772 61.46C66.3305 61.2467 66.0572 61.08 65.6572 60.96L65.2772 60.84L65.4772 60.3H69.0972L69.3172 60.54L69.0972 60.84C68.8172 61.2133 68.6172 61.6067 68.4972 62.02C68.3905 62.4333 68.3372 62.98 68.3372 63.66V65.94C68.3372 66.6733 68.4439 67.2267 68.6572 67.6C68.8705 67.96 69.1172 68.1867 69.3972 68.28C69.6905 68.3733 70.0305 68.42 70.4172 68.42C70.9505 68.42 71.3905 68.2467 71.7372 67.9C72.0839 67.5533 72.2572 67.1067 72.2572 66.56C72.2572 66.0667 72.0639 65.6467 71.6772 65.3C71.2905 64.9533 70.7972 64.78 70.1972 64.78C69.8505 64.78 69.5705 64.8133 69.3572 64.88C69.1572 64.9333 69.0305 64.96 68.9772 64.96C68.9239 64.96 68.8772 64.9267 68.8372 64.86C68.7972 64.78 68.7772 64.7 68.7772 64.62C68.7772 64.3933 68.9505 64.2267 69.2972 64.12C69.6439 64.0133 70.0505 63.96 70.5172 63.96C71.2639 63.96 71.9105 64.08 72.4572 64.32C73.0039 64.56 73.4172 64.8867 73.6972 65.3C73.9772 65.7 74.1172 66.14 74.1172 66.62C74.1172 67.4467 73.7905 68.1 73.1372 68.58C72.4972 69.06 71.4905 69.3 70.1172 69.3H65.4772L65.2772 68.74ZM74.6372 68.74L75.0172 68.62C75.4439 68.5 75.7239 68.3467 75.8572 68.16C76.0039 67.96 76.0772 67.6067 76.0772 67.1V62.5C76.0772 61.9933 76.0039 61.64 75.8572 61.44C75.7239 61.24 75.4439 61.08 75.0172 60.96L74.6372 60.84L74.8172 60.3H78.4772L78.6772 60.54L78.4772 60.84C78.1972 61.2 77.9972 61.5867 77.8772 62C77.7705 62.4133 77.7172 62.9667 77.7172 63.66V67.22C77.7172 67.7 77.7839 68.0333 77.9172 68.22C78.0505 68.3933 78.3172 68.54 78.7172 68.66L79.0572 68.76L78.8972 69.3H74.8172L74.6372 68.74ZM80.7459 68.74L81.1259 68.62C81.5393 68.5 81.8126 68.3467 81.9459 68.16C82.0926 67.96 82.1659 67.6067 82.1659 67.1V62.5C82.1659 61.9933 82.0926 61.64 81.9459 61.44C81.8126 61.24 81.5393 61.08 81.1259 60.96L80.7459 60.84L80.9459 60.3H84.5659L84.7859 60.54L84.5659 60.84C84.2859 61.2267 84.0859 61.6267 83.9659 62.04C83.8593 62.44 83.8059 62.98 83.8059 63.66V66.2L88.1859 62.08C88.1193 61.72 88.0126 61.4667 87.8659 61.32C87.7326 61.1733 87.5193 61.0533 87.2259 60.96L86.8659 60.84L87.0259 60.3H90.6859L90.8859 60.54L90.6859 60.84C90.4059 61.2267 90.2059 61.6267 90.0859 62.04C89.9793 62.44 89.9259 62.98 89.9259 63.66V67.22C89.9259 67.7 89.9926 68.0267 90.1259 68.2C90.2593 68.3733 90.5326 68.5267 90.9459 68.66L91.2859 68.76L91.1259 69.3H87.0259L86.8659 68.74L87.2259 68.62C87.6526 68.5 87.9326 68.3467 88.0659 68.16C88.2126 67.96 88.2859 67.6067 88.2859 67.1V63.44L83.9059 67.56C83.9593 67.9333 84.0526 68.1933 84.1859 68.34C84.3326 68.4733 84.5526 68.58 84.8459 68.66L85.2059 68.76L85.0259 69.3H80.9459L80.7459 68.74ZM85.9859 58.96C85.1193 58.96 84.4326 58.82 83.9259 58.54C83.4326 58.2467 83.1859 57.8267 83.1859 57.28C83.1859 56.8933 83.3126 56.5867 83.5659 56.36C83.8193 56.12 84.1259 56 84.4859 56C84.5793 56 84.6593 56.0267 84.7259 56.08C84.7926 56.1333 84.8259 56.1933 84.8259 56.26C84.8259 56.3 84.7793 56.4 84.6859 56.56C84.5926 56.72 84.5459 56.94 84.5459 57.22C84.5459 57.8733 85.0259 58.2 85.9859 58.2C86.5059 58.2 86.8859 58.1133 87.1259 57.94C87.3659 57.7667 87.4859 57.5333 87.4859 57.24C87.4859 56.96 87.4393 56.74 87.3459 56.58C87.2659 56.4067 87.2259 56.3 87.2259 56.26C87.2259 56.18 87.2526 56.12 87.3059 56.08C87.3726 56.0267 87.4659 56 87.5859 56C87.9193 56 88.2059 56.12 88.4459 56.36C88.6993 56.5867 88.8259 56.8933 88.8259 57.28C88.8259 57.8267 88.5726 58.2467 88.0659 58.54C87.5593 58.82 86.8659 58.96 85.9859 58.96ZM99.0625 68.68L99.5025 68.58C99.9558 68.46 100.256 68.2933 100.402 68.08C100.562 67.8533 100.643 67.46 100.643 66.9V57.94C100.643 57.78 100.609 57.6733 100.543 57.62C100.476 57.5533 100.376 57.52 100.243 57.52H99.2025L98.9825 56.84C99.5025 56.64 100.189 56.46 101.043 56.3C101.896 56.1267 102.716 56.04 103.503 56.04C105.276 56.04 106.596 56.44 107.463 57.24C108.329 58.04 108.762 59.0733 108.762 60.34C108.762 61.1267 108.603 61.84 108.283 62.48C107.976 63.12 107.496 63.6333 106.842 64.02C106.202 64.3933 105.402 64.58 104.442 64.58C104.016 64.58 103.643 64.5267 103.323 64.42C103.003 64.3 102.842 64.14 102.842 63.94C102.842 63.82 102.863 63.72 102.903 63.64C102.956 63.5467 103.029 63.5 103.122 63.5C103.162 63.5 103.262 63.5267 103.423 63.58C103.582 63.62 103.776 63.64 104.003 63.64C104.909 63.64 105.616 63.3467 106.122 62.76C106.643 62.1733 106.903 61.3933 106.903 60.42C106.903 59.4333 106.629 58.6267 106.082 58C105.549 57.36 104.789 57.04 103.802 57.04C102.896 57.04 102.442 57.3267 102.442 57.9V65.66C102.442 66.4067 102.503 67 102.622 67.44C102.743 67.8667 102.956 68.28 103.262 68.68L103.503 69L103.262 69.3H99.2825L99.0625 68.68ZM113.204 69.56C112.617 69.56 112.07 69.3933 111.564 69.06C111.07 68.7133 110.67 68.2133 110.364 67.56C110.07 66.8933 109.924 66.0867 109.924 65.14C109.924 63.58 110.344 62.3467 111.184 61.44C112.037 60.5333 113.184 60.08 114.624 60.08C115.104 60.08 115.757 60.1533 116.584 60.3C117.197 60.4067 117.75 60.48 118.244 60.52L118.484 60.74L118.224 61.08C118.13 61.24 118.064 61.3667 118.024 61.46C117.997 61.54 117.984 61.6533 117.984 61.8V67.7C117.984 68.0733 118.177 68.26 118.564 68.26C118.857 68.26 119.157 68.1533 119.464 67.94L119.804 68.4C119.484 68.76 119.144 69.0467 118.784 69.26C118.424 69.46 118.097 69.56 117.804 69.56C117.297 69.56 116.93 69.4133 116.704 69.12C116.477 68.8133 116.364 68.32 116.364 67.64C115.884 68.3467 115.384 68.8467 114.864 69.14C114.357 69.42 113.804 69.56 113.204 69.56ZM113.904 68.14C114.917 68.14 115.737 67.5933 116.364 66.5V61.6C115.844 61.2533 115.257 61.08 114.604 61.08C113.737 61.08 113.057 61.4067 112.564 62.06C112.084 62.7 111.844 63.6133 111.844 64.8C111.844 65.9467 112.037 66.7933 112.424 67.34C112.824 67.8733 113.317 68.14 113.904 68.14ZM120.922 68.74L121.302 68.62C121.715 68.5 121.988 68.3467 122.122 68.16C122.268 67.96 122.342 67.6067 122.342 67.1V62.5C122.342 61.9933 122.268 61.64 122.122 61.44C121.988 61.24 121.715 61.08 121.302 60.96L120.922 60.84L121.122 60.3H124.742L124.962 60.54L124.742 60.84C124.462 61.2267 124.262 61.6267 124.142 62.04C124.035 62.44 123.982 62.98 123.982 63.66V66.2L128.362 62.08C128.295 61.72 128.188 61.4667 128.042 61.32C127.908 61.1733 127.695 61.0533 127.402 60.96L127.042 60.84L127.202 60.3H130.862L131.062 60.54L130.862 60.84C130.582 61.2267 130.382 61.6267 130.262 62.04C130.155 62.44 130.102 62.98 130.102 63.66V67.22C130.102 67.7 130.168 68.0267 130.302 68.2C130.435 68.3733 130.708 68.5267 131.122 68.66L131.462 68.76L131.302 69.3H127.202L127.042 68.74L127.402 68.62C127.828 68.5 128.108 68.3467 128.242 68.16C128.388 67.96 128.462 67.6067 128.462 67.1V63.44L124.082 67.56C124.135 67.9333 124.228 68.1933 124.362 68.34C124.508 68.4733 124.728 68.58 125.022 68.66L125.382 68.76L125.202 69.3H121.122L120.922 68.74ZM126.162 58.96C125.295 58.96 124.608 58.82 124.102 58.54C123.608 58.2467 123.362 57.8267 123.362 57.28C123.362 56.8933 123.488 56.5867 123.742 56.36C123.995 56.12 124.302 56 124.662 56C124.755 56 124.835 56.0267 124.902 56.08C124.968 56.1333 125.002 56.1933 125.002 56.26C125.002 56.3 124.955 56.4 124.862 56.56C124.768 56.72 124.722 56.94 124.722 57.22C124.722 57.8733 125.202 58.2 126.162 58.2C126.682 58.2 127.062 58.1133 127.302 57.94C127.542 57.7667 127.662 57.5333 127.662 57.24C127.662 56.96 127.615 56.74 127.522 56.58C127.442 56.4067 127.402 56.3 127.402 56.26C127.402 56.18 127.428 56.12 127.482 56.08C127.548 56.0267 127.642 56 127.762 56C128.095 56 128.382 56.12 128.622 56.36C128.875 56.5867 129.002 56.8933 129.002 57.28C129.002 57.8267 128.748 58.2467 128.242 58.54C127.735 58.82 127.042 58.96 126.162 58.96Z" fill="#29AAE3"/>
<path d="M60.1995 17.0661C60.1995 17.0661 61.2192 14.5661 64.7883 13.5661C68.3573 12.5661 72.9465 11.5661 72.9465 11.5661C72.9465 11.5661 75.6523 10.7609 77.0255 9.56607C78.4384 8.3366 78.555 6.06607 78.0452 5.06607C77.1532 3.31657 75.2749 1.39441 71.9268 1.06608C68.5787 0.737748 65.8085 1.56608 61.7296 5.06607C57.6507 8.56606 56.1211 19.5661 56.1211 19.5661C56.1211 19.5661 50.5126 17.5661 45.414 22.0661C40.3153 26.5661 40.8249 31.5661 40.8249 31.5661C40.8249 31.5661 25.529 31.0661 25.0191 42.5661C24.5091 54.0661 36.2364 53.5661 36.2364 53.5661H93.341C93.341 53.5661 102.008 53.0661 102.518 44.0661C103.028 35.0661 96.9096 32.5661 96.9096 32.5661C96.9096 32.5661 98.4392 26.5661 92.3208 22.0661C86.2024 17.5661 79.0649 21.0661 79.0649 21.0661" stroke="#29AAE3" stroke-width="0.5"/>
<path fill-rule="evenodd" clip-rule="evenodd" d="M57.6502 55.066L69.5326 9.10344C69.5326 9.10344 70.2943 6.54718 72.1731 7.16129C74.1535 7.80863 73.4934 10.3982 73.4934 10.3982L73.4463 10.5309C73.0222 10.7097 72.511 10.8555 71.911 10.9361C72.311 9.23841 71.8099 9.21264 71.8099 9.21264C71.8099 9.21264 71.1853 8.53231 70.3878 11.0843C69.5902 13.6363 70.215 14.3167 70.215 14.3167C70.215 14.3167 70.8741 14.3505 71.6717 11.7985C71.6973 11.7164 71.7215 11.6369 71.7442 11.5598C72.2793 11.5049 72.76 11.4019 73.1856 11.2659L57.6502 55.066Z" fill="#0057FF"/>
</svg>
